<?xml version="1.0" encoding="UTF-8"?>
<svg xmlns="http://www.w3.org/2000/svg" id="Layer_2" viewBox="0 0 443.5 96.54">
  <defs>
    <style>.cls-1{fill:#fff;}</style>
  </defs>
  <g id="Layer_1-2">
    <polygon class="cls-1" points="32.1 18.41 7.08 18.41 7.08 7.43 43.07 7.43 43.07 1.06 0 1.06 0 43.78 7.08 43.78 7.08 24.78 32.1 24.78 32.1 18.41"></polygon>
    <polygon class="cls-1" points="422.53 21.39 441.98 7.49 431.46 7.49 406.74 25.25 406.74 7.49 399.66 7.49 399.66 43.78 406.74 43.78 406.74 32.81 417.06 25.39 434.36 43.78 443.5 43.78 422.53 21.39"></polygon>
    <path class="cls-1" d="m18.74,96.54s85.94-23.16,204.18-23.16,204.18,23.16,204.18,23.16c0,0-95.38-31.69-204.18-31.69S18.74,96.54,18.74,96.54Z"></path>
    <polygon class="cls-1" points="355.88 31.67 348.8 31.88 348.8 43.78 355.88 43.78 355.88 31.67"></polygon>
    <path class="cls-1" d="m373.9,30.44h0l9.5,13.33h8.11l-9.79-13.75c6.02-1.34,9.03-5.01,9.03-11.03,0-3.5-1.14-6.29-3.42-8.38-2.28-2.08-5.35-3.13-9.2-3.13h-29.32v22.54l25.05.34.05.07Zm-18.02-16.58h20.77c4.56,0,6.84,1.75,6.84,5.25,0,3.3-2.14,4.95-6.43,4.95h-21.18v-10.21Z"></path>
    <polygon class="cls-1" points="320.99 13.77 329.78 29.78 337.59 29.88 325.4 7.49 316.61 7.49 304.65 29.44 312.39 29.54 320.99 13.77"></polygon>
    <polygon class="cls-1" points="304.64 43.78 310.49 33.04 302.56 33.28 296.84 43.78 304.64 43.78"></polygon>
    <polygon class="cls-1" points="333.19 35.99 337.37 43.78 345.16 43.78 338.84 32.17 331.22 32.4 333.19 35.99"></polygon>
    <path class="cls-1" d="m293.31,27.46c2.38-1.99,3.57-4.81,3.57-8.47s-1.14-6.29-3.42-8.38c-2.28-2.08-5.35-3.13-9.2-3.13h-29.32v21.28l35.34.47c1.15-.46,2.17-1.05,3.04-1.78Zm-10.12-3.39h-21.18v-10.21h20.77c4.56,0,6.84,1.75,6.84,5.25,0,3.3-2.14,4.95-6.43,4.95Z"></path>
    <polygon class="cls-1" points="262.02 34.53 254.94 34.75 254.94 43.78 262.02 43.78 262.02 34.53"></polygon>
    <polygon class="cls-1" points="197.47 37.41 169.45 37.41 169.45 34.43 162.37 34.25 162.37 43.78 197.47 43.78 197.47 37.41"></polygon>
    <polygon class="cls-1" points="169.45 7.49 162.37 7.49 162.37 29.03 169.45 28.95 169.45 7.49"></polygon>
    <polygon class="cls-1" points="124.13 33.3 116.44 33.1 110.62 43.78 118.42 43.78 124.13 33.3"></polygon>
    <polygon class="cls-1" points="134.77 13.77 143.26 29.23 150.98 29.15 139.18 7.49 130.39 7.49 118.4 29.5 126.24 29.41 134.77 13.77"></polygon>
    <polygon class="cls-1" points="146.97 35.99 151.15 43.78 158.94 43.78 153.64 34.04 145.79 33.84 146.97 35.99"></polygon>
    <polygon class="cls-1" points="71.39 13.51 84.71 29.86 93.01 29.77 74.86 7.49 64.31 7.49 64.31 30.07 71.39 30 71.39 13.51"></polygon>
    <polygon class="cls-1" points="106.61 7.49 99.53 7.49 99.53 29.7 106.61 29.62 106.61 7.49"></polygon>
    <polygon class="cls-1" points="96.05 43.78 106.61 43.78 106.61 32.86 99.53 32.68 99.53 37.78 95.29 32.57 86.75 32.36 96.05 43.78"></polygon>
    <polygon class="cls-1" points="71.39 31.98 64.31 31.8 64.31 43.78 71.39 43.78 71.39 31.98"></polygon>
    <polygon class="cls-1" points="56.05 7.49 48.97 7.49 48.97 30.24 56.05 30.16 56.05 7.49"></polygon>
    <polygon class="cls-1" points="56.05 31.59 48.97 31.41 48.97 43.78 56.05 43.78 56.05 31.59"></polygon>
    <path class="cls-1" d="m240.6,11.09l4.31-4.78c-5.89-3.99-13.13-6.06-21.71-6.27l1,6.33c5.55.41,11.02,1.98,16.4,4.72Z"></path>
    <path class="cls-1" d="m243.67,22.36c-2.56-1.93-6.51-3.25-11.86-3.95-1.16-.15-3.09-.32-5.76-.52.56,2.26,2.28,4.99,4.34,7.08,2.03.22,3.45.43,4.25.64,2.27.59,3.78,1.58,4.56,2.96l8.15.11c-.39-2.63-1.61-4.74-3.69-6.31Z"></path>
    <path class="cls-1" d="m205.2,21.3c2.34,1.17,6.14,2.01,11.35,2.54,1.71-2.03,3.04-4.43,3.4-6.38-3.92-.24-6.75-.67-8.49-1.29-2.48-.86-3.72-2.24-3.72-4.13s1.16-3.22,3.48-4.25c2.32-1.02,5.66-1.53,10.03-1.53.16,0,.32.01.48.01l.98-6.24c-.31,0-.61-.03-.93-.03-6.84,0-12.14,1.16-15.9,3.48-3.76,2.32-5.63,5.49-5.63,9.5s1.65,6.67,4.96,8.32Z"></path>
    <path class="cls-1" d="m220,43.5c-.25-1.77-1.36-3.78-2.85-5.54-5.07-.88-9.9-2.7-14.49-5.51l-3.89,5.13c5.29,4.19,12.43,6.55,21.42,7.08l-.18-1.16Z"></path>
    <path class="cls-1" d="m235.88,36.52c-1.94.97-4.44,1.59-7.48,1.88-1.31,1.65-2.26,3.48-2.49,5.11l-.2,1.25c6.77-.16,12.04-1.38,15.78-3.68,2.58-1.6,4.32-3.62,5.24-6.07l-8.95.28c-.53.45-1.16.87-1.9,1.25Z"></path>
  </g>
</svg>
